<mxfile host="app.diagrams.net" modified="2024-04-02T13:33:59.812Z" agent="Mozilla/5.0 (Windows NT 10.0; Win64; x64) AppleWebKit/537.36 (KHTML, like Gecko) Chrome/123.0.0.0 Safari/537.36" etag="ZdeInFuu4tRWz0uEv80g" version="24.2.0" type="device">
  <diagram name="PÃ¡gina-1" id="QuN6wCh-61yXOy0HH0dT">
    <mxGraphModel dx="1434" dy="738" grid="1" gridSize="10" guides="1" tooltips="1" connect="1" arrows="1" fold="1" page="1" pageScale="1" pageWidth="827" pageHeight="1169" math="0" shadow="0">
      <root>
        <mxCell id="0" />
        <mxCell id="1" parent="0" />
        <mxCell id="GkoM44JSsQ5WVMSVlBBx-4" value="" style="edgeStyle=orthogonalEdgeStyle;rounded=0;orthogonalLoop=1;jettySize=auto;html=1;" edge="1" parent="1" source="GkoM44JSsQ5WVMSVlBBx-1" target="GkoM44JSsQ5WVMSVlBBx-3">
          <mxGeometry relative="1" as="geometry" />
        </mxCell>
        <mxCell id="GkoM44JSsQ5WVMSVlBBx-7" value="" style="edgeStyle=orthogonalEdgeStyle;rounded=0;orthogonalLoop=1;jettySize=auto;html=1;" edge="1" parent="1" source="GkoM44JSsQ5WVMSVlBBx-1" target="GkoM44JSsQ5WVMSVlBBx-6">
          <mxGeometry relative="1" as="geometry" />
        </mxCell>
        <mxCell id="GkoM44JSsQ5WVMSVlBBx-1" value="SUCURSAL" style="whiteSpace=wrap;html=1;align=center;" vertex="1" parent="1">
          <mxGeometry x="130" y="340" width="100" height="40" as="geometry" />
        </mxCell>
        <mxCell id="GkoM44JSsQ5WVMSVlBBx-2" value="EMPRESA&lt;br&gt;PROVEEDORA" style="whiteSpace=wrap;html=1;align=center;" vertex="1" parent="1">
          <mxGeometry x="130" y="130" width="100" height="40" as="geometry" />
        </mxCell>
        <mxCell id="GkoM44JSsQ5WVMSVlBBx-5" value="" style="edgeStyle=orthogonalEdgeStyle;rounded=0;orthogonalLoop=1;jettySize=auto;html=1;" edge="1" parent="1" source="GkoM44JSsQ5WVMSVlBBx-3" target="GkoM44JSsQ5WVMSVlBBx-2">
          <mxGeometry relative="1" as="geometry" />
        </mxCell>
        <mxCell id="GkoM44JSsQ5WVMSVlBBx-3" value="POSEE" style="shape=rhombus;perimeter=rhombusPerimeter;whiteSpace=wrap;html=1;align=center;" vertex="1" parent="1">
          <mxGeometry x="135" y="230" width="90" height="50" as="geometry" />
        </mxCell>
        <mxCell id="GkoM44JSsQ5WVMSVlBBx-9" value="" style="edgeStyle=orthogonalEdgeStyle;rounded=0;orthogonalLoop=1;jettySize=auto;html=1;" edge="1" parent="1" source="GkoM44JSsQ5WVMSVlBBx-6" target="GkoM44JSsQ5WVMSVlBBx-8">
          <mxGeometry relative="1" as="geometry" />
        </mxCell>
        <mxCell id="GkoM44JSsQ5WVMSVlBBx-6" value="OFRECE" style="rhombus;whiteSpace=wrap;html=1;" vertex="1" parent="1">
          <mxGeometry x="320" y="320" width="80" height="80" as="geometry" />
        </mxCell>
        <mxCell id="GkoM44JSsQ5WVMSVlBBx-8" value="PRODUCTO" style="whiteSpace=wrap;html=1;" vertex="1" parent="1">
          <mxGeometry x="460" y="330" width="120" height="60" as="geometry" />
        </mxCell>
      </root>
    </mxGraphModel>
  </diagram>
</mxfile>
